<?xml version="1.0" standalone="no"?>
<!DOCTYPE svg PUBLIC "-//W3C//DTD SVG 20010904//EN"
 "http://www.w3.org/TR/2001/REC-SVG-20010904/DTD/svg10.dtd">
<svg version="1.0" xmlns="http://www.w3.org/2000/svg"
 width="2048.000000pt" height="2048.000000pt" viewBox="0 0 2048.000000 2048.000000"
 preserveAspectRatio="xMidYMid meet">
<metadata>
Created by potrace 1.14, written by Peter Selinger 2001-2017
</metadata>
<g transform="translate(0.000000,2048.000000) scale(0.100000,-0.100000)"
fill="#000000" stroke="none">
<path d="M0 10240 l0 -10240 10240 0 10240 0 0 10240 0 10240 -10240 0 -10240
0 0 -10240z m10607 7609 c432 -58 827 -309 1057 -670 26 -42 411 -704 855
-1470 l807 -1394 1255 -5 c1381 -6 1306 -3 1589 -71 1039 -248 1842 -1083
2056 -2136 73 -364 71 -764 -7 -1133 -144 -679 -550 -1290 -1119 -1685 -185
-128 -417 -251 -605 -320 -27 -10 -52 -19 -53 -21 -2 -1 240 -424 539 -940
298 -515 560 -977 581 -1026 144 -334 161 -721 47 -1068 -117 -359 -387 -684
-707 -853 -101 -53 -4572 -2043 -4769 -2123 -391 -157 -789 -257 -1233 -310
-186 -21 -626 -30 -820 -15 -492 38 -936 137 -1370 306 -204 79 -4743 2099
-4835 2152 -383 217 -660 611 -742 1053 -24 131 -24 401 0 525 24 123 71 272
116 369 21 44 448 789 950 1655 501 866 910 1575 909 1576 -64 47 -3306 2836
-3333 2867 -56 65 -104 146 -139 241 -29 78 -30 89 -30 232 0 136 2 157 27
230 37 111 90 198 172 281 100 100 191 152 355 202 51 16 259 17 2685 22
l2630 5 822 1420 c505 873 850 1458 895 1519 220 297 566 510 938 576 121 21
354 26 477 9z"/>
<path d="M10357 16393 c-8 -10 -283 -481 -611 -1048 l-596 -1030 625 -3 c344
-1 906 -1 1249 0 l624 3 -598 1033 c-329 567 -603 1039 -610 1047 -17 20 -63
19 -83 -2z"/>
<path d="M5064 12195 c427 -366 779 -665 784 -665 7 0 772 1312 772 1324 0 3
-525 6 -1166 6 l-1166 0 776 -665z"/>
<path d="M6770 10208 c-844 -1458 -1539 -2657 -1543 -2664 -10 -17 -216 -107
1743 764 916 407 1719 760 1785 785 529 199 1071 297 1649 297 562 0 1101 -97
1623 -291 76 -28 902 -391 1836 -806 934 -415 1700 -753 1702 -751 2 2 -688
1198 -1534 2658 l-1537 2655 -2095 2 -2094 2 -1535 -2651z"/>
<path d="M14173 12853 c3 -5 341 -588 752 -1298 410 -709 750 -1294 754 -1298
5 -4 54 1 110 13 517 105 912 508 1018 1038 23 119 24 375 0 492 -30 152 -92
312 -168 436 -199 326 -519 545 -888 608 -81 14 -199 16 -838 16 -409 0 -742
-3 -740 -7z"/>
<path d="M10130 7930 c-268 -26 -504 -75 -747 -156 -124 -41 -608 -252 -2065
-900 -1047 -466 -1919 -853 -1938 -861 l-34 -15 24 -13 c79 -41 3833 -1704
3918 -1736 211 -78 470 -142 717 -175 162 -22 579 -25 735 -6 256 31 474 80
700 157 173 59 4016 1766 3998 1776 -23 12 -3796 1689 -3851 1710 -234 94
-518 168 -787 204 -137 19 -536 27 -670 15z m440 -785 c426 -57 780 -304 960
-670 246 -502 101 -1086 -358 -1435 -105 -80 -306 -175 -447 -211 -156 -41
-373 -51 -535 -25 -458 73 -829 376 -978 798 -108 305 -73 669 89 939 68 113
116 174 215 268 176 170 430 296 664 330 41 6 86 13 100 15 59 8 193 5 290 -9z"/>
</g>
</svg>
