<?xml version="1.0" standalone="no"?>
<!DOCTYPE svg PUBLIC "-//W3C//DTD SVG 20010904//EN"
 "http://www.w3.org/TR/2001/REC-SVG-20010904/DTD/svg10.dtd">
<svg version="1.0" xmlns="http://www.w3.org/2000/svg"
 width="1024.000000pt" height="1024.000000pt" viewBox="0 0 1024.000000 1024.000000"
 preserveAspectRatio="xMidYMid meet">
<metadata>
Created by potrace 1.14, written by Peter Selinger 2001-2017
</metadata>
<g transform="translate(0.000000,1024.000000) scale(0.100000,-0.100000)"
fill="#000000" stroke="none">
<path d="M1565 10230 c-27 -4 -70 -11 -95 -15 -255 -39 -538 -158 -750 -316
-176 -131 -299 -260 -421 -441 -122 -180 -231 -436 -263 -618 -2 -14 -7 -41
-10 -60 -3 -19 -9 -48 -13 -65 -4 -16 -9 -1618 -10 -3560 -2 -3788 -4 -3593
47 -3808 65 -272 220 -568 396 -757 23 -25 52 -57 65 -71 49 -52 190 -167 275
-224 225 -150 476 -242 774 -284 78 -11 7110 -9 7155 2 17 4 66 14 110 23 187
35 344 95 550 208 88 49 238 164 330 253 259 252 437 582 504 933 5 30 14 71
18 90 4 19 8 1624 10 3565 2 3791 4 3599 -46 3805 -7 25 -14 54 -16 64 -18 78
-88 251 -144 356 -171 325 -460 599 -801 762 -156 74 -367 135 -550 157 -90
11 -7041 12 -7115 1z"/>
</g>
</svg>
