<svg width="25" height="18" viewBox="0 0 25 18" fill="none" xmlns="http://www.w3.org/2000/svg">
<path d="M20.5866 1.58171C19.0994 0.899327 17.5047 0.396576 15.8372 0.10863C15.8069 0.103072 15.7765 0.11696 15.7609 0.144737C15.5558 0.509529 15.3286 0.985431 15.1695 1.35949C13.376 1.09099 11.5918 1.09099 9.83513 1.35949C9.676 0.977116 9.44057 0.509529 9.23454 0.144737C9.2189 0.117887 9.18857 0.103999 9.1582 0.10863C7.49167 0.395656 5.89689 0.898407 4.40878 1.58171C4.3959 1.58727 4.38486 1.59653 4.37753 1.60856C1.35256 6.1278 0.523894 10.536 0.930409 14.8895C0.932249 14.9108 0.944205 14.9311 0.96076 14.9441C2.95655 16.4098 4.88981 17.2995 6.78717 17.8893C6.81754 17.8986 6.84971 17.8875 6.86904 17.8625C7.31786 17.2496 7.71794 16.6033 8.06097 15.9237C8.08122 15.8839 8.06189 15.8366 8.02052 15.8209C7.38592 15.5802 6.78165 15.2867 6.20039 14.9534C6.15441 14.9265 6.15073 14.8607 6.19303 14.8293C6.31535 14.7376 6.4377 14.6422 6.5545 14.5459C6.57563 14.5284 6.60507 14.5246 6.62992 14.5358C10.4486 16.2792 14.5827 16.2792 18.3563 14.5358C18.3811 14.5237 18.4106 14.5274 18.4326 14.545C18.5495 14.6413 18.6718 14.7376 18.795 14.8293C18.8373 14.8607 18.8346 14.9265 18.7886 14.9534C18.2073 15.2931 17.6031 15.5802 16.9675 15.82C16.9262 15.8357 16.9078 15.8839 16.928 15.9237C17.2784 16.6023 17.6785 17.2486 18.119 17.8615C18.1374 17.8875 18.1705 17.8986 18.2009 17.8893C20.1074 17.2995 22.0407 16.4098 24.0365 14.9441C24.054 14.9311 24.065 14.9117 24.0669 14.8904C24.5534 9.85726 23.252 5.48525 20.617 1.60948C20.6105 1.59653 20.5995 1.58727 20.5866 1.58171ZM8.63123 12.2386C7.48155 12.2386 6.53425 11.1831 6.53425 9.8869C6.53425 8.59065 7.46318 7.53516 8.63123 7.53516C9.80844 7.53516 10.7466 8.59992 10.7282 9.8869C10.7282 11.1831 9.79924 12.2386 8.63123 12.2386ZM16.3844 12.2386C15.2348 12.2386 14.2875 11.1831 14.2875 9.8869C14.2875 8.59065 15.2164 7.53516 16.3844 7.53516C17.5617 7.53516 18.4998 8.59992 18.4814 9.8869C18.4814 11.1831 17.5617 12.2386 16.3844 12.2386Z" fill="white"/>
</svg>
