<svg width="341" height="83" viewBox="0 0 341 83" fill="none" xmlns="http://www.w3.org/2000/svg">
<path fill-rule="evenodd" clip-rule="evenodd" d="M0.242287 21.6988C0.808179 20.1691 2.26675 19.1534 3.89782 19.1534H75.2055C83.4056 19.1534 90 25.8457 90 34.0353C90 42.2249 83.4056 48.9172 75.2055 48.9172C73.0529 48.9172 71.3079 47.1721 71.3079 45.0195C71.3079 42.8669 73.0529 41.1219 75.2055 41.1219C79.0418 41.1219 82.2047 37.9785 82.2047 34.0353C82.2047 30.0921 79.0418 26.9487 75.2055 26.9487H14.4341L26.2768 37.0996C27.9112 38.5005 28.1005 40.9611 26.6996 42.5955C25.2987 44.2298 22.8381 44.4191 21.2038 43.0182L1.36127 26.0104C0.122875 24.9489 -0.323605 23.2286 0.242287 21.6988Z" fill="url(#paint0_linear_2101_229376)"/>
<path fill-rule="evenodd" clip-rule="evenodd" d="M40.4279 4.0653C43.5671 -1.3551 51.3933 -1.35509 54.5325 4.0653L85.6869 57.8589C88.1143 62.0503 86.372 67.4213 81.9464 69.3896L57.7035 80.1716C51.1953 83.0661 43.7651 83.0661 37.2569 80.1716L13.014 69.3896C8.5884 67.4213 6.8461 62.0503 9.27354 57.8589L40.4279 4.0653ZM47.2986 7.83805C47.2669 7.85562 47.2228 7.88704 47.1736 7.97201L16.0192 61.7656C15.9136 61.9479 15.9894 62.1814 16.1818 62.267L40.4247 73.049C44.9163 75.0466 50.0441 75.0466 54.5357 73.049L78.7786 62.267C78.971 62.1814 79.0468 61.9479 78.9412 61.7656L47.7868 7.97201C47.7376 7.88704 47.6935 7.85562 47.6618 7.83805C47.6197 7.81475 47.557 7.79526 47.4802 7.79526C47.4034 7.79526 47.3407 7.81475 47.2986 7.83805Z" fill="#1a0259"/>
<path fill-rule="evenodd" clip-rule="evenodd" d="M64.1295 28.4129C65.9922 27.3341 68.3769 27.9696 69.4557 29.8324L83.4074 53.9225C84.4862 55.7853 83.8507 58.1699 81.9879 59.2487C80.1252 60.3275 77.7406 59.692 76.6618 57.8293L62.71 33.7391C61.6312 31.8763 62.2667 29.4917 64.1295 28.4129Z" fill="#1a0259"/>
<path fill-rule="evenodd" clip-rule="evenodd" d="M30.8315 28.4129C32.6943 29.4917 33.3298 31.8763 32.251 33.7391L22.9498 49.7992C21.871 51.662 19.4864 52.2975 17.6236 51.2187C15.7609 50.1399 15.1254 47.7552 16.2042 45.8925L25.5053 29.8324C26.5841 27.9696 28.9687 27.3341 30.8315 28.4129Z" fill="#1a0259"/>
<path fill-rule="evenodd" clip-rule="evenodd" d="M9.90328 64.3188C9.02852 62.352 9.91384 60.0484 11.8807 59.1736L37.257 47.8875C43.7652 44.993 51.1953 44.993 57.7035 47.8875L83.0798 59.1736C85.0467 60.0484 85.932 62.352 85.0572 64.3188C84.1825 66.2857 81.8789 67.171 79.912 66.2962L54.5357 55.0101C50.0442 53.0125 44.9163 53.0125 40.4248 55.0101L15.0485 66.2962C13.0816 67.171 10.778 66.2857 9.90328 64.3188Z" fill="#1a0259"/>
<path d="M54.2126 64.1532C54.2126 67.6756 51.1984 70.5311 47.4803 70.5311C43.7622 70.5311 40.748 67.6756 40.748 64.1532C40.748 60.6308 43.7622 57.7753 47.4803 57.7753C51.1984 57.7753 54.2126 60.6308 54.2126 64.1532Z" fill="#1a0259"/>
<path fill-rule="evenodd" clip-rule="evenodd" d="M40.1328 12.3526C41.9955 13.4314 42.631 15.816 41.5522 17.6788L32.2511 33.7389C31.1723 35.6017 28.7877 36.2372 26.9249 35.1584C25.0621 34.0795 24.4266 31.6949 25.5054 29.8322L34.8066 13.7721C35.8854 11.9093 38.27 11.2738 40.1328 12.3526Z" fill="#1a0259"/>
<path d="M119 79.9189L119 40.4595V1L136.077 1V32.027H144.046L153.192 12.2613L171.635 12.2613L159.074 38.4054L177.062 79.9189L158.391 79.9189L144.16 46.0811H136.077V79.9189H119Z" fill="#1a0259"/>
<path d="M207.017 81C201.476 81 196.618 80.027 192.444 78.0811C188.346 76.0631 185.158 73.2883 182.881 69.7568C180.68 66.1531 179.579 61.973 179.579 57.2162V43.1622C179.579 38.4054 180.68 34.2613 182.881 30.7297C185.158 27.1261 188.346 24.3514 192.444 22.4054C196.618 20.3874 201.476 19.3784 207.017 19.3784C212.557 19.3784 217.339 20.3874 221.361 22.4054C225.46 24.3514 228.61 27.1261 230.811 30.7297C233.088 34.2613 234.226 38.4054 234.226 43.1622V53.973L195.859 53.973V57.2162C195.859 64.7838 199.654 68.5676 207.244 68.5676C212.633 68.5676 215.859 66.9459 216.921 63.7027H233.657C232.291 68.8919 229.179 73.0721 224.321 76.2432C219.54 79.4144 213.771 81 207.017 81ZM195.859 43.1622V44.7838L217.946 44.5676V42.9459C217.946 35.3784 214.303 31.5946 207.017 31.5946C203.298 31.5946 200.489 32.6036 198.592 34.6216C196.77 36.6396 195.859 39.4865 195.859 43.1622Z" fill="#1a0259"/>
<path d="M272.51 79.9189C266.135 79.9189 261.126 78.1892 257.482 74.7297C253.839 71.2703 252.018 66.5135 252.018 60.4595V35.0541H240.253V20.4595L252.018 20.4595V3.7027L269.095 3.7027V20.4595L290.062 20.4595V35.0541H269.095V59.9189C269.095 61.5045 269.512 62.8018 270.347 63.8108C271.258 64.8198 272.548 65.3243 274.218 65.3243H288.923V79.9189H272.51Z" fill="#1a0259"/>
<path d="M325.784 79.9189C321.382 79.9189 317.511 79.0541 314.172 77.3243C310.832 75.5225 308.214 73.036 306.316 69.8649C304.495 66.6937 303.584 63.018 303.584 58.8378V15.5946L295.52 15.5946V1L320.661 1V58.2973C320.661 60.3874 321.268 62.0811 322.483 63.3784C323.773 64.6757 325.443 65.3243 327.492 65.3243H341V79.9189H325.784Z" fill="#1a0259"/>
<defs>
<linearGradient id="paint0_linear_2101_229376" x1="9.05069" y1="20.001" x2="86.2991" y2="20.001" gradientUnits="userSpaceOnUse">
<stop stop-color="#75CD7C"/>
<stop offset="0.234016" stop-color="#F3DE62"/>
<stop offset="0.517549" stop-color="#AC71D2"/>
<stop offset="0.760577" stop-color="#59B9F8"/>
<stop offset="1" stop-color="#70CC80"/>
</linearGradient>
</defs>
</svg>
