<svg width="363" height="104" viewBox="0 0 363 104" fill="none" xmlns="http://www.w3.org/2000/svg">
<path d="M141 89.9189V50.4595V11H158.077V42.027H166.046L175.192 22.2613H193.635L181.074 48.4054L199.062 89.9189H180.391L166.16 56.0811H158.077V89.9189H141Z" fill="#1A0259"/>
<path d="M229.016 91C223.475 91 218.617 90.027 214.443 88.0811C210.345 86.0631 207.157 83.2883 204.88 79.7568C202.679 76.1531 201.578 71.973 201.578 67.2162V53.1622C201.578 48.4054 202.679 44.2613 204.88 40.7297C207.157 37.1261 210.345 34.3514 214.443 32.4054C218.617 30.3874 223.475 29.3784 229.016 29.3784C234.556 29.3784 239.338 30.3874 243.36 32.4054C247.459 34.3514 250.609 37.1261 252.81 40.7297C255.087 44.2613 256.225 48.4054 256.225 53.1622V63.973H217.858V67.2162C217.858 74.7838 221.653 78.5676 229.243 78.5676C234.632 78.5676 237.858 76.9459 238.92 73.7027H255.656C254.29 78.8919 251.178 83.0721 246.32 86.2432C241.539 89.4144 235.77 91 229.016 91ZM217.858 53.1622V54.7838L239.945 54.5676V52.9459C239.945 45.3784 236.302 41.5946 229.016 41.5946C225.297 41.5946 222.488 42.6036 220.591 44.6216C218.769 46.6396 217.858 49.4865 217.858 53.1622Z" fill="#1A0259"/>
<path d="M294.511 89.9188C288.136 89.9188 283.127 88.1891 279.483 84.7296C275.84 81.2702 274.019 76.5134 274.019 70.4594V45.054H262.254V30.4594H274.019V13.7026H291.096V30.4594H312.063V45.054H291.096V69.9188C291.096 71.5044 291.513 72.8017 292.348 73.8107C293.259 74.8197 294.549 75.3242 296.219 75.3242H310.924V89.9188H294.511Z" fill="#1A0259"/>
<path d="M347.784 89.9189C343.382 89.9189 339.511 89.0541 336.172 87.3243C332.832 85.5225 330.214 83.036 328.316 79.8649C326.495 76.6937 325.584 73.018 325.584 68.8378V25.5946H317.52V11H342.661V68.2973C342.661 70.3874 343.268 72.0811 344.483 73.3784C345.773 74.6757 347.443 75.3243 349.492 75.3243H363V89.9189H347.784Z" fill="#1A0259"/>
<path d="M103.655 74.5367L65.6799 8.9651C63.3687 4.97443 57.6068 4.97442 55.2957 8.96509L17.3201 74.5367C15.5329 77.6226 16.8157 81.5768 20.074 83.026L48.2966 95.578C56.0576 99.0297 64.918 99.0297 72.6789 95.578L100.902 83.0259C104.16 81.5768 105.443 77.6226 103.655 74.5367Z" stroke="#1A0259" stroke-width="11" stroke-linecap="round" stroke-linejoin="round"/>
<path d="M95.1487 56.7017C102.673 56.7017 108.772 50.5535 108.772 42.9693C108.772 35.385 102.673 29.2368 95.1487 29.2368H6L30.807 50.5" stroke="url(#paint0_linear_301_270)" stroke-width="11" stroke-linecap="round" stroke-linejoin="round"/>
<path d="M83.7422 40.1558L95.3705 60.2341L101.185 70.2732" stroke="#1A0259" stroke-width="11" stroke-linecap="round" stroke-linejoin="round"/>
<path d="M37.2318 40.1558L25.6035 60.2341" stroke="#1A0259" stroke-width="11" stroke-linecap="round" stroke-linejoin="round"/>
<path d="M103.014 78.8496L72.6785 65.358C64.9176 61.9063 56.0572 61.9063 48.2962 65.358L17.961 78.8496" stroke="#1A0259" stroke-width="11" stroke-linecap="round" stroke-linejoin="round"/>
<ellipse cx="60.487" cy="80.6231" rx="8.41667" ry="7.97368" fill="#1A0259"/>
<path d="M37.2285 40.1564L48.8568 20.0781" stroke="#1A0259" stroke-width="11" stroke-linecap="round" stroke-linejoin="round"/>
<defs>
<linearGradient id="paint0_linear_301_270" x1="12.4421" y1="25.4694" x2="109.018" y2="25.4694" gradientUnits="userSpaceOnUse">
<stop stop-color="#75CD7C"/>
<stop offset="0.234016" stop-color="#F3DE62"/>
<stop offset="0.517549" stop-color="#AC71D2"/>
<stop offset="0.760577" stop-color="#59B9F8"/>
<stop offset="1" stop-color="#70CC80"/>
</linearGradient>
</defs>
</svg>
