<svg width="220" height="68" viewBox="0 0 220 68" fill="none" xmlns="http://www.w3.org/2000/svg">
<path d="M94 56.7672V10.4023L103.692 10.4023V28.6307H108.216L113.406 17.0183H123.874L116.745 32.378L126.954 56.7672L116.357 56.7672L108.28 36.8875H103.692V56.7672H94Z" fill="#1A0259"/>
<path d="M143.955 57.4023C140.811 57.4023 138.054 56.8307 135.684 55.6875C133.358 54.5019 131.549 52.8717 130.257 50.7969C129.007 48.6798 128.383 46.224 128.383 43.4294V35.1726C128.383 32.378 129.007 29.9433 130.257 27.8686C131.549 25.7514 133.358 24.1213 135.684 22.978C138.054 21.7924 140.811 21.1996 143.955 21.1996C147.1 21.1996 149.814 21.7924 152.097 22.978C154.423 24.1213 156.211 25.7514 157.46 27.8686C158.752 29.9433 159.399 32.378 159.399 35.1726V41.524H137.623V43.4294C137.623 47.8753 139.777 50.0983 144.085 50.0983C147.143 50.0983 148.974 49.1456 149.577 47.2402H159.076C158.3 50.2888 156.534 52.7447 153.777 54.6077C151.063 56.4708 147.789 57.4023 143.955 57.4023ZM137.623 35.1726V36.1253L150.158 35.9983V35.0456C150.158 30.5996 148.091 28.3767 143.955 28.3767C141.845 28.3767 140.251 28.9695 139.174 30.155C138.14 31.3406 137.623 33.0132 137.623 35.1726Z" fill="#1A0259"/>
<path d="M181.127 56.7672C177.509 56.7672 174.666 55.751 172.598 53.7186C170.53 51.6861 169.497 48.8915 169.497 45.3348V30.4091L162.82 30.4091V21.8348H169.497V11.9902L179.189 11.9902V21.8348L191.089 21.8348V30.4091H179.189V45.0172C179.189 45.9487 179.426 46.7109 179.9 47.3037C180.417 47.8965 181.149 48.1929 182.097 48.1929H190.443V56.7672L181.127 56.7672Z" fill="#1A0259"/>
<path d="M211.364 56.7672C208.866 56.7672 206.669 56.2591 204.773 55.2429C202.878 54.1843 201.392 52.7235 200.315 50.8605C199.281 48.9974 198.764 46.8379 198.764 44.3821V18.9767H194.187V10.4023L208.456 10.4023V44.0645C208.456 45.2924 208.801 46.2875 209.49 47.0496C210.223 47.8118 211.17 48.1929 212.333 48.1929H220V56.7672H211.364Z" fill="#1A0259"/>
<path fill-rule="evenodd" clip-rule="evenodd" d="M40.4424 45.2605C38.0369 44.355 35.3842 44.355 32.9787 45.2605L9.8983 53.9482C8.63471 54.4239 7.2248 53.7851 6.74917 52.5215C6.27355 51.2579 6.91231 49.848 8.1759 49.3724L31.2563 40.6847C34.772 39.3613 38.649 39.3613 42.1648 40.6847L65.2452 49.3724C66.5088 49.848 67.1475 51.2579 66.6719 52.5215C66.1963 53.7851 64.7864 54.4239 63.5228 53.9482L40.4424 45.2605Z" fill="#1A0259"/>
<path fill-rule="evenodd" clip-rule="evenodd" d="M31.7696 2.85355C33.9648 -0.951193 39.4561 -0.951176 41.6512 2.85356L68.0211 48.559C69.7118 51.4895 68.495 55.2391 65.4057 56.6183L44.3509 66.018C39.4886 68.1888 33.9323 68.1888 29.07 66.018L8.01521 56.6183C4.92589 55.2391 3.70904 51.4895 5.39978 48.559L31.7696 2.85355ZM37.4163 5.29693C37.1027 4.75339 36.3182 4.7534 36.0046 5.29693L9.63475 51.0024C9.39321 51.421 9.56705 51.9567 10.0084 52.1537L31.0631 61.5534C34.6571 63.1579 38.7638 63.1579 42.3578 61.5534L63.4125 52.1537C63.8538 51.9567 64.0277 51.421 63.7861 51.0024L37.4163 5.29693Z" fill="#1A0259"/>
<path fill-rule="evenodd" clip-rule="evenodd" d="M0.184463 19.7635C0.561801 18.8478 1.45433 18.2502 2.44471 18.2502H59.7498C66.1104 18.2502 71.2206 23.4565 71.2206 29.8215C71.2206 36.1866 66.1104 41.3928 59.7498 41.3928C58.3996 41.3928 57.3051 40.2983 57.3051 38.9482C57.3051 37.598 58.3996 36.5035 59.7498 36.5035C63.3592 36.5035 66.3313 33.5375 66.3313 29.8215C66.3313 26.1056 63.3592 23.1395 59.7498 23.1395H8.37709L18.0406 32.7329C18.9987 33.6841 19.0043 35.232 18.0531 36.1902C17.1019 37.1483 15.5541 37.1539 14.5959 36.2027L0.722391 22.4298C0.0195417 21.732 -0.192876 20.6792 0.184463 19.7635Z" fill="url(#paint0_linear_1_4689)"/>
<path fill-rule="evenodd" clip-rule="evenodd" d="M36.6712 1.30078C38.0213 1.30078 39.1158 2.39528 39.1158 3.74542L39.1158 41.2299C39.1158 42.58 38.0213 43.6745 36.6712 43.6745C35.3211 43.6745 34.2266 42.58 34.2266 41.2299L34.2266 3.74542C34.2266 2.39528 35.3211 1.30078 36.6712 1.30078Z" fill="#1A0259"/>
<path fill-rule="evenodd" clip-rule="evenodd" d="M22.4323 23.9296C23.6018 24.6043 24.0029 26.0993 23.3281 27.2688L15.5782 40.7014C14.9034 41.8708 13.4084 42.2719 12.239 41.5972C11.0695 40.9225 10.6685 39.4275 11.3432 38.258L19.0932 24.8254C19.7679 23.656 21.2629 23.2549 22.4323 23.9296Z" fill="#1A0259"/>
<path fill-rule="evenodd" clip-rule="evenodd" d="M50.989 23.9296C52.1584 23.2549 53.6534 23.656 54.3282 24.8254L65.9531 44.9743C66.6278 46.1438 66.2268 47.6388 65.0573 48.3135C63.8879 48.9882 62.3929 48.5871 61.7181 47.4177L50.0932 27.2688C49.4185 26.0993 49.8195 24.6043 50.989 23.9296Z" fill="#1A0259"/>
<path fill-rule="evenodd" clip-rule="evenodd" d="M22.4902 53.7786C22.4902 46.0378 28.7654 39.7627 36.5062 39.7627C44.247 39.7627 50.5221 46.0378 50.5221 53.7786C50.5221 61.5194 44.247 67.7946 36.5062 67.7946C28.7654 67.7946 22.4902 61.5194 22.4902 53.7786ZM36.5062 62.9053C41.5467 62.9053 45.6328 58.8191 45.6328 53.7786C45.6328 48.7381 41.5467 44.652 36.5062 44.652C31.4657 44.652 27.3795 48.7381 27.3795 53.7786C27.3795 58.8191 31.4657 62.9053 36.5062 62.9053Z" fill="#1A0259"/>
<path d="M32.4316 53.9417C32.4316 51.6015 34.3288 49.7043 36.669 49.7043C39.0093 49.7043 40.9064 51.6015 40.9064 53.9417C40.9064 56.282 39.0093 58.1791 36.669 58.1791C34.3288 58.1791 32.4316 56.282 32.4316 53.9417Z" fill="#1A0259"/>
<defs>
<linearGradient id="paint0_linear_1_4689" x1="4.95197" y1="18.2502" x2="68.9389" y2="18.2502" gradientUnits="userSpaceOnUse">
<stop stop-color="#75CD7C"/>
<stop offset="0.234016" stop-color="#F3DE62"/>
<stop offset="0.517549" stop-color="#AC71D2"/>
<stop offset="0.760577" stop-color="#59B9F8"/>
<stop offset="1" stop-color="#70CC80"/>
</linearGradient>
</defs>
</svg>
